# Exported from ProBuilder
# http://www.procore3d.com/probuilder
# 3/8/2019 10:03:29 AM

mtllib ./BackHallFloor.mtl
o BackHallFloor

g BackHallFloor
v 1 -1 47
v -30 -1 47
v 1 0 47
v -30 0 47
v -30 -1 47
v -30 -1 35
v -30 0 47
v -30 0 35
v -30 -1 35
v 1 -1 35
v -30 0 35
v 1 0 35
v 1 -1 35
v 1 -1 47
v 1 0 35
v 1 0 47
v 1 0 47
v -30 0 47
v 1 0 35
v -30 0 35
v 1 -1 35
v -30 -1 35
v 1 -1 47
v -30 -1 47

vn 0 0 1
vn 0 0 1
vn 0 0 1
vn 0 0 1
vn -1 0 0
vn -1 0 0
vn -1 0 0
vn -1 0 0
vn 0 0 -1
vn 0 0 -1
vn 0 0 -1
vn 0 0 -1
vn 1 0 0
vn 1 0 0
vn 1 0 0
vn 1 0 0
vn 0 1 0
vn 0 1 0
vn 0 1 0
vn 0 1 0
vn 0 -1 0
vn 0 -1 0
vn 0 -1 0
vn 0 -1 0

vt 19 0
vt -12 0
vt 19 1
vt -12 1
vt 5 0
vt -7 0
vt 5 1
vt -7 1
vt 12 0
vt -19 0
vt 12 1
vt -19 1
vt 7 0
vt -5 0
vt 7 1
vt -5 1
vt -19 5
vt 12 5
vt -19 -7
vt 12 -7
vt 19 -7
vt -12 -7
vt 19 5
vt -12 5

g BackHallFloor_0
usemtl DemoFloor
f 3/3/3 4/4/4 2/2/2 1/1/1
f 19/19/19 20/20/20 18/18/18 17/17/17

g BackHallFloor_1
usemtl Default_Prototype
f 7/7/7 8/8/8 6/6/6 5/5/5
f 11/11/11 12/12/12 10/10/10 9/9/9
f 15/15/15 16/16/16 14/14/14 13/13/13
f 23/23/23 24/24/24 22/22/22 21/21/21

