# Exported from ProBuilder
# http://www.procore3d.com/probuilder
# 3/8/2019 10:15:26 AM

mtllib ./LevelTransitionWall2.mtl
o LevelTransitionWall2

g LevelTransitionWall2
v -12 -1 51
v -13 -1 51
v -12 5 51
v -13 5 51
v -13 -1 50
v -13 -1 41
v -13 5 50
v -13 5 41
v -13 -1 41
v -12 -1 41
v -13 5 41
v -12 5 41
v -12 -1 41
v -12 -1 50
v -12 5 41
v -12 5 50
v -12 5 50
v -13 5 50
v -12 5 41
v -13 5 41
v -12 -1 41
v -13 -1 41
v -12 -1 50
v -13 -1 50
v -12 -1 50
v -13 -1 50
v -12 -1 51
v -13 -1 51
v -9.5 5 50
v -9.5 -1 50
v -9.5 5 51
v -9.5 -1 51
v -13 -1 50
v -13 5 50
v -13 -1 51
v -13 5 51
v -13 5 50
v -12 5 50
v -13 5 51
v -12 5 51
v -12 5 50
v -12 -1 50
v -9.5 5 50
v -9.5 -1 50
v -12 5 51
v -12 5 50
v -9.5 5 51
v -9.5 5 50
v -12 -1 50
v -12 -1 51
v -9.5 -1 50
v -9.5 -1 51
v -12 -1 51
v -12 5 51
v -9.5 -1 51
v -9.5 5 51

vn 0 0 1
vn 0 0 1
vn 0 0 1
vn 0 0 1
vn -1 0 0
vn -1 0 0
vn -1 0 0
vn -1 0 0
vn 0 0 -1
vn 0 0 -1
vn 0 0 -1
vn 0 0 -1
vn 1 0 0
vn 1 0 0
vn 1 0 0
vn 1 0 0
vn 0 1 0
vn 0 1 0
vn 0 1 0
vn 0 1 0
vn 0 -1 0
vn 0 -1 0
vn 0 -1 0
vn 0 -1 0
vn 0 -1 0
vn 0 -1 0
vn 0 -1 0
vn 0 -1 0
vn 1 0 0
vn 1 0 0
vn 1 0 0
vn 1 0 0
vn -1 0 0
vn -1 0 0
vn -1 0 0
vn -1 0 0
vn 0 1 0
vn 0 1 0
vn 0 1 0
vn 0 1 0
vn 0 0 -1
vn 0 0 -1
vn 0 0 -1
vn 0 0 -1
vn 0 1 0
vn 0 1 0
vn 0 1 0
vn 0 1 0
vn 0 -1 0
vn 0 -1 0
vn 0 -1 0
vn 0 -1 0
vn 0 0 1
vn 0 0 1
vn 0 0 1
vn 0 0 1

vt 0 0
vt -1 0
vt 0 6
vt -1 6
vt 7 0
vt -2 0
vt 7 6
vt -2 6
vt 1 0
vt 0 0
vt 1 6
vt 0 6
vt 2 0
vt -7 0
vt 2 6
vt -7 6
vt 0 7
vt 1 7
vt 0 -2
vt 1 -2
vt 0 -2
vt -1 -2
vt 0 7
vt -1 7
vt 0 7
vt -1 7
vt 0 8.000001
vt -1 8.000001
vt -7 6
vt -7 0
vt -8.000001 6
vt -8.000001 0
vt 7 0
vt 7 6
vt 8.000001 0
vt 8.000001 6
vt 1 7
vt 0 7
vt 1 8.000001
vt 0 8.000001
vt 0 6
vt 0 0
vt -2.5 6
vt -2.5 0
vt 0 8.000001
vt 0 7
vt -2.5 8.000001
vt -2.5 7
vt 0 7
vt 0 8.000001
vt 2.5 7
vt 2.5 8.000001
vt 0 0
vt 0 6
vt 2.5 0
vt 2.5 6

g LevelTransitionWall2_0
usemtl Default_Prototype
f 3/3/3 4/4/4 2/2/2 1/1/1
f 7/7/7 8/8/8 6/6/6 5/5/5
f 15/15/15 16/16/16 14/14/14 13/13/13
f 19/19/19 20/20/20 18/18/18 17/17/17
f 23/23/23 24/24/24 22/22/22 21/21/21
f 27/27/27 28/28/28 26/26/26 25/25/25
f 31/31/31 32/32/32 30/30/30 29/29/29
f 35/35/35 36/36/36 34/34/34 33/33/33
f 39/39/39 40/40/40 38/38/38 37/37/37
f 43/43/43 44/44/44 42/42/42 41/41/41
f 47/47/47 48/48/48 46/46/46 45/45/45
f 51/51/51 52/52/52 50/50/50 49/49/49
f 55/55/55 56/56/56 54/54/54 53/53/53

g LevelTransitionWall2_1
usemtl DemoWall
f 11/11/11 12/12/12 10/10/10 9/9/9

