# Exported from ProBuilder
# http://www.procore3d.com/probuilder
# 3/8/2019 10:01:57 AM

mtllib ./MezzanineFloor.mtl
o MezzanineFloor

g MezzanineFloor
v -5 3 34
v -19 3 34
v -5 4 34
v -19 4 34
v -19 3 34
v -19 3 20
v -19 4 34
v -19 4 20
v -19 3 20
v -5 3 20
v -19 4 20
v -5 4 20
v -5 3 20
v -5 3 34
v -5 4 20
v -5 4 34
v -5 4 34
v -19 4 34
v -5 4 20
v -19 4 20
v -5 3 20
v -19 3 20
v -5 3 34
v -19 3 34

vn 0 0 1
vn 0 0 1
vn 0 0 1
vn 0 0 1
vn -1 0 0
vn -1 0 0
vn -1 0 0
vn -1 0 0
vn 0 0 -1
vn 0 0 -1
vn 0 0 -1
vn 0 0 -1
vn 1 0 0
vn 1 0 0
vn 1 0 0
vn 1 0 0
vn 0 1 0
vn 0 1 0
vn 0 1 0
vn 0 1 0
vn 0 -1 0
vn 0 -1 0
vn 0 -1 0
vn 0 -1 0

vt 0 0
vt -14 0
vt 0 1
vt -14 1
vt 13 0
vt -1 0
vt 13 1
vt -1 1
vt 14 0
vt 0 0
vt 14 1
vt 0 1
vt 1 0
vt -13 0
vt 1 1
vt -13 1
vt 0 13
vt 14 13
vt 0 -1
vt 14 -1
vt 0 -1
vt -14 -1
vt 0 13
vt -14 13

g MezzanineFloor_0
usemtl Default_Prototype
f 3/3/3 4/4/4 2/2/2 1/1/1
f 7/7/7 8/8/8 6/6/6 5/5/5
f 11/11/11 12/12/12 10/10/10 9/9/9

g MezzanineFloor_1
usemtl DemoWall
f 15/15/15 16/16/16 14/14/14 13/13/13
f 23/23/23 24/24/24 22/22/22 21/21/21

g MezzanineFloor_2
usemtl DemoFloor
f 19/19/19 20/20/20 18/18/18 17/17/17

