# Exported from ProBuilder
# http://www.procore3d.com/probuilder
# 3/8/2019 10:12:49 AM

mtllib ./MidWall.mtl
o MidWall

g MidWall
v -18 -1 35
v -19 -1 35
v -18 9.5 35
v -19 9.5 35
v -19 -1 34
v -19 -1 28
v -19 9.5 34
v -19 9.5 28
v -19 -1 28
v -18 -1 28
v -19 9.5 28
v -18 9.5 28
v -18 -1 28
v -18 -1 34
v -18 9.5 28
v -18 9.5 34
v -18 9.5 34
v -19 9.5 34
v -18 9.5 28
v -19 9.5 28
v -18 -1 28
v -19 -1 28
v -18 -1 34
v -19 -1 34
v -18 -1 34
v -19 -1 34
v -18 -1 35
v -19 -1 35
v -5 9.5 34
v -5 -1 34
v -5 9.5 35
v -5 -1 35
v -19 -1 34
v -19 9.5 34
v -19 -1 35
v -19 9.5 35
v -19 9.5 34
v -18 9.5 34
v -19 9.5 35
v -18 9.5 35
v -18 9.5 34
v -18 -1 34
v -5 9.5 34
v -5 -1 34
v -18 9.5 35
v -18 9.5 34
v -5 9.5 35
v -5 9.5 34
v -18 -1 34
v -18 -1 35
v -5 -1 34
v -5 -1 35
v -18 -1 35
v -18 9.5 35
v -5 -1 35
v -5 9.5 35

vn 0 0 1
vn 0 0 1
vn 0 0 1
vn 0 0 1
vn -1 0 0
vn -1 0 0
vn -1 0 0
vn -1 0 0
vn 0 0 -1
vn 0 0 -1
vn 0 0 -1
vn 0 0 -1
vn 1 0 0
vn 1 0 0
vn 1 0 0
vn 1 0 0
vn 0 1 0
vn 0 1 0
vn 0 1 0
vn 0 1 0
vn 0 -1 0
vn 0 -1 0
vn 0 -1 0
vn 0 -1 0
vn 0 -1 0
vn 0 -1 0
vn 0 -1 0
vn 0 -1 0
vn 1 0 0
vn 1 0 0
vn 1 0 0
vn 1 0 0
vn -1 0 0
vn -1 0 0
vn -1 0 0
vn -1 0 0
vn 0 1 0
vn 0 1 0
vn 0 1 0
vn 0 1 0
vn 0 0 -1
vn 0 0 -1
vn 0 0 -1
vn 0 0 -1
vn 0 1 0
vn 0 1 0
vn 0 1 0
vn 0 1 0
vn 0 -1 0
vn 0 -1 0
vn 0 -1 0
vn 0 -1 0
vn 0 0 1
vn 0 0 1
vn 0 0 1
vn 0 0 1

vt 0 0
vt -1 0
vt 0 10.5
vt -1 10.5
vt 5 0
vt -1 0
vt 5 10.5
vt -1 10.5
vt 1 0
vt 0 0
vt 1 10.5
vt 0 10.5
vt 1 0
vt -5 0
vt 1 10.5
vt -5 10.5
vt 0 5
vt 1 5
vt 0 -1
vt 1 -1
vt 0 -1
vt -1 -1
vt 0 5
vt -1 5
vt 0 5
vt -1 5
vt 0 6.000001
vt -1 6.000001
vt -5 10.5
vt -5 0
vt -6.000001 10.5
vt -6.000001 0
vt 5 0
vt 5 10.5
vt 6.000001 0
vt 6.000001 10.5
vt 1 5
vt 0 5
vt 1 6.000001
vt 0 6.000001
vt 0 10.5
vt 0 0
vt -13 10.5
vt -13 0
vt 0 6.000001
vt 0 5
vt -13 6.000001
vt -13 5
vt 0 5
vt 0 6.000001
vt 13 5
vt 13 6.000001
vt 0 0
vt 0 10.5
vt 13 0
vt 13 10.5

g MidWall_0
usemtl Default_Prototype
f 3/3/3 4/4/4 2/2/2 1/1/1
f 7/7/7 8/8/8 6/6/6 5/5/5
f 11/11/11 12/12/12 10/10/10 9/9/9
f 15/15/15 16/16/16 14/14/14 13/13/13
f 23/23/23 24/24/24 22/22/22 21/21/21
f 27/27/27 28/28/28 26/26/26 25/25/25
f 31/31/31 32/32/32 30/30/30 29/29/29
f 35/35/35 36/36/36 34/34/34 33/33/33
f 43/43/43 44/44/44 42/42/42 41/41/41
f 51/51/51 52/52/52 50/50/50 49/49/49
f 55/55/55 56/56/56 54/54/54 53/53/53

g MidWall_1
usemtl DemoWall
f 19/19/19 20/20/20 18/18/18 17/17/17
f 39/39/39 40/40/40 38/38/38 37/37/37
f 47/47/47 48/48/48 46/46/46 45/45/45

