# Exported from ProBuilder
# http://www.procore3d.com/probuilder
# 3/8/2019 9:59:53 AM

mtllib ./StairLanding.mtl
o StairLanding

g RightStairsLanding
v -10 1 16
v -14 1 16
v -10 2 16
v -14 2 16
v -14 1 16
v -14 1 12
v -14 2 16
v -14 2 12
v -14 1 12
v -10 1 12
v -14 2 12
v -10 2 12
v -10 1 12
v -10 1 16
v -10 2 12
v -10 2 16
v -10 2 16
v -14 2 16
v -10 2 12
v -14 2 12
v -10 1 12
v -14 1 12
v -10 1 16
v -14 1 16

vn 0 0 1
vn 0 0 1
vn 0 0 1
vn 0 0 1
vn -1 0 0
vn -1 0 0
vn -1 0 0
vn -1 0 0
vn 0 0 -1
vn 0 0 -1
vn 0 0 -1
vn 0 0 -1
vn 1 0 0
vn 1 0 0
vn 1 0 0
vn 1 0 0
vn 0 1 0
vn 0 1 0
vn 0 1 0
vn 0 1 0
vn 0 -1 0
vn 0 -1 0
vn 0 -1 0
vn 0 -1 0

vt 0 0
vt -4 0
vt 0 1
vt -4 1
vt 0 0
vt -4 0
vt 0 1
vt -4 1
vt 4 0
vt 0 0
vt 4 1
vt 0 1
vt 4 0
vt 0 0
vt 4 1
vt 0 1
vt 0 0
vt 4 0
vt 0 -4
vt 4 -4
vt 0 -4
vt -4 -4
vt 0 0
vt -4 0

g RightStairsLanding
usemtl Default_Prototype
f 3/3/3 4/4/4 2/2/2 1/1/1
f 7/7/7 8/8/8 6/6/6 5/5/5
f 11/11/11 12/12/12 10/10/10 9/9/9
f 15/15/15 16/16/16 14/14/14 13/13/13
f 19/19/19 20/20/20 18/18/18 17/17/17
f 23/23/23 24/24/24 22/22/22 21/21/21

